<svg width="22" height="25" viewBox="0 0 22 25" fill="none" xmlns="http://www.w3.org/2000/svg">
<path id="Vector" d="M10.9127 9.3772H13.0952V5.86075H16.369V3.51645H13.0952V0H10.9127V3.51645H7.63889V5.86075H10.9127V9.3772ZM6.54762 19.9265C5.34722 19.9265 4.37599 20.9815 4.37599 22.2708C4.37599 23.5602 5.34722 24.6151 6.54762 24.6151C7.74802 24.6151 8.73016 23.5602 8.73016 22.2708C8.73016 20.9815 7.74802 19.9265 6.54762 19.9265ZM17.4603 19.9265C16.2599 19.9265 15.2887 20.9815 15.2887 22.2708C15.2887 23.5602 16.2599 24.6151 17.4603 24.6151C18.6607 24.6151 19.6429 23.5602 19.6429 22.2708C19.6429 20.9815 18.6607 19.9265 17.4603 19.9265ZM6.73314 16.1171L6.76587 15.9764L7.74802 14.0658H15.878C16.6964 14.0658 17.4167 13.5852 17.7877 12.8585L22 4.64171L20.1012 3.51645H20.0903L18.8899 5.86075L15.878 11.7215H8.21726L8.0754 11.405L5.63095 5.86075L4.59425 3.51645L3.56845 1.17215H0V3.51645H2.18254L6.11111 12.4131L4.6379 15.2848C4.46329 15.613 4.36508 15.9998 4.36508 16.4101C4.36508 17.6995 5.34722 18.7544 6.54762 18.7544H19.6429V16.4101H7.00595C6.86409 16.4101 6.73314 16.2812 6.73314 16.1171Z" fill="#B2541A"/>
</svg>
