<svg width="32" height="28" viewBox="0 0 32 28" fill="none" xmlns="http://www.w3.org/2000/svg">
<path id="CS" d="M26.7585 18.2559C27.3029 16.9454 27.5985 15.5424 27.5985 14.0006C27.5985 12.8905 27.4273 11.8267 27.1318 10.8399C26.1207 11.0712 25.0629 11.1945 23.9585 11.1945C21.6966 11.1969 19.4674 10.6603 17.4586 9.62996C15.4499 8.59959 13.7205 7.10565 12.4162 5.27408C11.0211 8.62002 8.3891 11.3114 5.05846 12.798C4.99624 13.1834 4.99624 13.5997 4.99624 14.0006C4.99624 15.4725 5.28875 16.9301 5.85708 18.29C6.4254 19.6499 7.25841 20.8856 8.30854 21.9264C10.4294 24.0284 13.3058 25.2094 16.3051 25.2094C17.9385 25.2094 19.5096 24.8548 20.9251 24.2226C21.8118 25.9032 22.2162 26.7357 22.1851 26.7357C19.634 27.5837 17.6585 28 16.3051 28C12.5407 28 8.94735 26.5353 6.30291 23.8988C4.69446 22.3095 3.49882 20.3574 2.81846 18.2097H0.749573V11.1945H2.44513C2.95884 8.71613 4.13989 6.4218 5.86298 4.55497C7.58606 2.68815 9.7869 1.31848 12.232 0.591299C14.677 -0.135883 17.2751 -0.19345 19.7505 0.424706C22.2259 1.04286 24.4863 2.31368 26.2918 4.10232C28.2521 6.03765 29.5893 8.50581 30.134 11.1945H31.8607V18.2097H31.7674L26.2296 23.2513L17.9851 22.3262V19.7514H25.4985L26.7585 18.2559ZM12.0585 13.646C12.5251 13.646 12.9762 13.831 13.3029 14.1702C13.6312 14.4982 13.8154 14.9416 13.8154 15.4036C13.8154 15.8657 13.6312 16.309 13.3029 16.637C12.9762 16.9608 12.5251 17.1458 12.0585 17.1458C11.0785 17.1458 10.2851 16.3749 10.2851 15.4036C10.2851 14.4323 11.0785 13.646 12.0585 13.646ZM20.5362 13.646C21.5162 13.646 22.294 14.4323 22.294 15.4036C22.294 16.3749 21.5162 17.1458 20.5362 17.1458C19.5562 17.1458 18.7629 16.3749 18.7629 15.4036C18.7629 14.9375 18.9497 14.4904 19.2823 14.1608C19.6149 13.8312 20.0659 13.646 20.5362 13.646Z" fill="#B2541A"/>
</svg>
