<svg width="39" height="30" viewBox="0 0 39 30" fill="none" xmlns="http://www.w3.org/2000/svg">
<g id="Group">
<path id="Vector" d="M32.195 13.27C32.0845 13.2348 31.9644 13.245 31.8614 13.2983C31.7583 13.3517 31.6807 13.4438 31.6455 13.5543C31.6104 13.6649 31.6206 13.7849 31.6739 13.888C31.7273 13.991 31.8193 14.0687 31.9299 14.1038C35.3494 15.1932 36.8745 16.818 36.8745 19.3748C36.8745 21.6489 34.7999 23.4137 33.5644 24.2642C33.5059 24.3044 33.458 24.3582 33.4249 24.421C33.3919 24.4838 33.3746 24.5537 33.3745 24.6247V27.9698C32.3239 27.5713 31.3854 26.9243 30.6393 26.0842C30.5887 26.0278 30.5244 25.9855 30.4527 25.9611C30.381 25.9367 30.3043 25.9312 30.2298 25.9451C29.9804 25.9932 29.7258 26.0614 29.4677 26.1306C29.0214 26.2504 28.5612 26.3747 28.1246 26.3747C25.8776 26.3747 24.3044 25.8917 22.6961 24.7096C22.6026 24.6408 22.4856 24.6119 22.3708 24.6294C22.256 24.6469 22.1529 24.7092 22.0841 24.8028C22.0153 24.8963 21.9864 25.0133 22.0039 25.1281C22.0214 25.2429 22.0838 25.346 22.1773 25.4148C23.9509 26.7186 25.6737 27.2497 28.1246 27.2497C28.6767 27.2497 29.1947 27.1106 29.6952 26.9758C29.8509 26.9329 30.0058 26.8909 30.1589 26.8551C31.7943 28.5823 33.644 28.9752 33.7245 28.9909C33.7881 29.0041 33.8538 29.0029 33.9168 28.9873C33.9798 28.9717 34.0385 28.9421 34.0885 28.9008C34.1389 28.8599 34.1794 28.8083 34.2073 28.7497C34.2352 28.6911 34.2496 28.627 34.2495 28.5622V24.8531C36.5087 23.2422 37.7495 21.3032 37.7495 19.3748C37.7495 16.4164 35.9846 14.4766 32.195 13.27Z" fill="#B2541A" stroke="#B2541A"/>
<path id="Vector_2" d="M29.8747 12.8124C29.8747 6.07844 23.734 1 15.5922 1C7.4093 1 1 6.18957 1 12.8141C1 16.7857 3.80959 19.6312 6.24994 21.3531V27.1596C6.25039 27.2325 6.26897 27.3041 6.30401 27.368C6.33904 27.4319 6.38943 27.4861 6.45062 27.5257C6.51182 27.5653 6.5819 27.589 6.65456 27.5947C6.72721 27.6005 6.80015 27.588 6.86681 27.5586C6.99456 27.5017 9.9809 26.1446 12.5359 23.3507C13.6427 23.5564 14.8948 23.7541 16.0306 23.7541C24.3106 23.7541 29.8747 19.3564 29.8747 12.8124ZM16.0297 22.8791C14.8835 22.8791 13.5806 22.6595 12.4571 22.4451C12.3827 22.4315 12.3059 22.4371 12.2343 22.4614C12.1626 22.4858 12.0983 22.5281 12.0476 22.5843C10.2539 24.6072 8.14604 25.8926 7.12493 26.4465V21.1248C7.1249 21.0538 7.1076 20.9839 7.07452 20.9211C7.04144 20.8583 6.99358 20.8045 6.93506 20.7643C4.62683 19.1762 1.87499 16.5092 1.87499 12.8141C1.87499 6.67956 7.90017 1.87499 15.5922 1.87499C23.2361 1.87499 28.9997 6.57719 28.9997 12.8124C28.9997 18.834 23.7874 22.8791 16.0297 22.8791Z" fill="#B2541A" stroke="#B2541A"/>
<path id="Vector_3" d="M15.4374 11.0624C14.4723 11.0624 13.6874 11.8472 13.6874 12.8124C13.6874 13.7775 14.4723 14.5623 15.4374 14.5623C16.4025 14.5623 17.1874 13.7775 17.1874 12.8124C17.1874 11.8472 16.4025 11.0624 15.4374 11.0624ZM15.4374 13.6873C15.2121 13.6773 14.9994 13.5807 14.8435 13.4177C14.6877 13.2547 14.6007 13.0379 14.6007 12.8124C14.6007 12.5868 14.6877 12.37 14.8435 12.207C14.9994 12.044 15.2121 11.9474 15.4374 11.9374C15.6627 11.9474 15.8754 12.044 16.0313 12.207C16.1871 12.37 16.2741 12.5868 16.2741 12.8124C16.2741 13.0379 16.1871 13.2547 16.0313 13.4177C15.8754 13.5807 15.6627 13.6773 15.4374 13.6873ZM21.5623 11.0624C20.5972 11.0624 19.8124 11.8472 19.8124 12.8124C19.8124 13.7775 20.5972 14.5623 21.5623 14.5623C22.5275 14.5623 23.3123 13.7775 23.3123 12.8124C23.3123 11.8472 22.5275 11.0624 21.5623 11.0624ZM21.5623 13.6873C21.337 13.6773 21.1243 13.5807 20.9685 13.4177C20.8126 13.2547 20.7256 13.0379 20.7256 12.8124C20.7256 12.5868 20.8126 12.37 20.9685 12.207C21.1243 12.044 21.337 11.9474 21.5623 11.9374C21.7876 11.9474 22.0004 12.044 22.1562 12.207C22.3121 12.37 22.3991 12.5868 22.3991 12.8124C22.3991 13.0379 22.3121 13.2547 22.1562 13.4177C22.0004 13.5807 21.7876 13.6773 21.5623 13.6873ZM9.31248 11.1455C8.34737 11.1455 7.5625 11.9304 7.5625 12.8955C7.5625 13.8606 8.34737 14.6455 9.31248 14.6455C10.2776 14.6455 11.0625 13.8606 11.0625 12.8955C11.0625 11.9304 10.2776 11.1455 9.31248 11.1455ZM9.31248 13.7705C9.08719 13.7604 8.87446 13.6638 8.7186 13.5008C8.56274 13.3378 8.47576 13.121 8.47576 12.8955C8.47576 12.67 8.56274 12.4531 8.7186 12.2901C8.87446 12.1272 9.08719 12.0306 9.31248 12.0205C9.53777 12.0306 9.7505 12.1272 9.90636 12.2901C10.0622 12.4531 10.1492 12.67 10.1492 12.8955C10.1492 13.121 10.0622 13.3378 9.90636 13.5008C9.7505 13.6638 9.53777 13.7604 9.31248 13.7705Z" fill="#B2541A" stroke="#B2541A" stroke-width="0.5"/>
</g>
</svg>
