<svg width="21" height="21" viewBox="0 0 21 21" fill="none" xmlns="http://www.w3.org/2000/svg">
<g id="help-circle">
<path id="Vector" d="M10.5 19.25C15.3325 19.25 19.25 15.3325 19.25 10.5C19.25 5.66751 15.3325 1.75 10.5 1.75C5.66751 1.75 1.75 5.66751 1.75 10.5C1.75 15.3325 5.66751 19.25 10.5 19.25Z" stroke="#923800" stroke-linecap="round" stroke-linejoin="round"/>
<path id="Vector_2" d="M7.95374 7.87501C8.15945 7.29022 8.56549 6.7971 9.09995 6.483C9.6344 6.1689 10.2628 6.05408 10.8738 6.15888C11.4848 6.26369 12.039 6.58134 12.4382 7.0556C12.8374 7.52985 13.0559 8.13009 13.055 8.75001C13.055 10.5 10.4999 11.375 10.4999 11.375V12.6875" stroke="#923800" stroke-linecap="round" stroke-linejoin="round"/>
<path id="Vector_3" d="M10.5 14.875H10.5088" stroke="#923800" stroke-linecap="round" stroke-linejoin="round"/>
</g>
</svg>
