<svg width="30" height="32" viewBox="0 0 30 32" fill="none" xmlns="http://www.w3.org/2000/svg">
<g id="logos:whatsapp-icon" clip-path="url(#clip0_198_656)">
<path id="Vector" d="M0.848434 15.6364C0.847748 18.2957 1.49594 20.8924 2.72847 23.1811L0.73056 31.001L8.19577 28.9027C10.2605 30.1077 12.574 30.739 14.9249 30.7392H14.9311C22.6919 30.7392 29.0094 23.9693 29.0127 15.6483C29.0142 11.6161 27.5507 7.82454 24.8918 4.97197C22.2333 2.11964 18.6977 0.547983 14.9305 0.546143C7.16878 0.546143 0.851753 7.31566 0.848549 15.6364" fill="url(#paint0_linear_198_656)"/>
<path id="Vector_2" d="M0.345703 15.6315C0.344902 18.3865 1.01633 21.076 2.2928 23.4467L0.223251 31.547L7.95614 29.3734C10.0868 30.6188 12.4857 31.2754 14.9267 31.2763H14.933C22.9723 31.2763 29.5167 24.2629 29.5201 15.644C29.5215 11.467 28.0054 7.5391 25.2515 4.58433C22.4972 1.62994 18.8351 0.00171753 14.933 0C6.89241 0 0.348907 7.01243 0.345703 15.6315ZM4.95081 23.0385L4.66207 22.5471C3.44831 20.4782 2.80767 18.0874 2.80859 15.6325C2.81122 8.46852 8.24991 2.64009 14.9376 2.64009C18.1763 2.64156 21.22 3.99497 23.5092 6.45055C25.7984 8.90637 27.058 12.1709 27.0572 15.643C27.0543 22.807 21.6155 28.6361 14.933 28.6361H14.9282C12.7524 28.6349 10.6184 28.0085 8.75734 26.8247L8.31445 26.5432L3.7256 27.8329L4.95081 23.0383V23.0385Z" fill="url(#paint1_linear_198_656)"/>
<path id="Vector_3" d="M11.2872 9.09656C11.0141 8.44598 10.7268 8.43285 10.4671 8.42144C10.2545 8.41163 10.0114 8.41237 9.76854 8.41237C9.52547 8.41237 9.13053 8.51039 8.79671 8.90113C8.46254 9.29223 7.52092 10.2374 7.52092 12.1596C7.52092 14.0821 8.82703 15.9398 9.00911 16.2007C9.19141 16.4612 11.5306 20.5322 15.2353 22.0984C18.3142 23.3999 18.9408 23.141 19.609 23.0758C20.2773 23.0108 21.7655 22.1309 22.0691 21.2185C22.3729 20.3063 22.3729 19.5243 22.2819 19.3609C22.1908 19.1981 21.9477 19.1003 21.5832 18.905C21.2186 18.7096 19.4267 17.7643 19.0926 17.6339C18.7584 17.5036 18.5155 17.4386 18.2724 17.8298C18.0293 18.2204 17.3314 19.1003 17.1186 19.3609C16.9061 19.6221 16.6934 19.6546 16.329 19.4591C15.9643 19.2631 14.7904 18.851 13.3978 17.5201C12.3143 16.4844 11.5828 15.2054 11.3701 14.8142C11.1575 14.4236 11.3474 14.2118 11.5301 14.0172C11.6939 13.8421 11.8947 13.5609 12.0772 13.3328C12.2589 13.1047 12.3195 12.9419 12.4411 12.6813C12.5627 12.4205 12.5018 12.1923 12.4109 11.9969C12.3195 11.8014 11.6113 9.86908 11.2872 9.09656Z" fill="white"/>
</g>
<defs>
<linearGradient id="paint0_linear_198_656" x1="1414.84" y1="3046.03" x2="1414.84" y2="0.546143" gradientUnits="userSpaceOnUse">
<stop stop-color="#1FAF38"/>
<stop offset="1" stop-color="#60D669"/>
</linearGradient>
<linearGradient id="paint1_linear_198_656" x1="1465.07" y1="3154.7" x2="1465.07" y2="0" gradientUnits="userSpaceOnUse">
<stop stop-color="#F9F9F9"/>
<stop offset="1" stop-color="white"/>
</linearGradient>
<clipPath id="clip0_198_656">
<rect width="29.2969" height="31.6516" fill="white" transform="translate(0.223251)"/>
</clipPath>
</defs>
</svg>
