<svg width="31" height="32" viewBox="0 0 31 32" fill="none" xmlns="http://www.w3.org/2000/svg">
<g id="logos:facebook" clip-path="url(#clip0_198_653)">
<path id="Vector" d="M30.0277 15.7031C30.0277 7.03058 23.4693 0 15.3792 0C7.28917 0 0.730789 7.03046 0.730789 15.7031C0.730789 23.5409 6.08754 30.0375 13.0904 31.2155V20.2423H9.37108V15.7031H13.0904V12.2435C13.0904 8.30793 15.2774 6.13403 18.6233 6.13403C20.226 6.13403 21.9024 6.44074 21.9024 6.44074V10.3052H20.0553C18.2354 10.3052 17.668 11.5157 17.668 12.7576V15.7031H21.7307L21.0812 20.2423H17.668V31.2155C24.6709 30.0375 30.0277 23.5411 30.0277 15.7031Z" fill="#1877F2"/>
<path id="Vector_2" d="M21.0812 20.2423L21.7307 15.7031H17.668V12.7576C17.668 11.5155 18.2356 10.3052 20.0553 10.3052H21.9024V6.44073C21.9024 6.44073 20.226 6.13403 18.6233 6.13403C15.2774 6.13403 13.0904 8.30793 13.0904 12.2435V15.7031H9.37108V20.2423H13.0904V31.2155C13.8476 31.3427 14.6128 31.4065 15.3792 31.4063C16.1456 31.4065 16.9109 31.3427 17.668 31.2155V20.2423H21.0812Z" fill="white"/>
</g>
<defs>
<clipPath id="clip0_198_653">
<rect width="29.2969" height="31.4063" fill="white" transform="translate(0.730789)"/>
</clipPath>
</defs>
</svg>
