<svg width="25" height="24" viewBox="0 0 25 24" fill="none" xmlns="http://www.w3.org/2000/svg">
<g id="map-pin">
<path id="Vector" d="M21.4356 10C21.4356 17 12.4356 23 12.4356 23C12.4356 23 3.43561 17 3.43561 10C3.43561 7.61305 4.38382 5.32387 6.07165 3.63604C7.75947 1.94821 10.0487 1 12.4356 1C14.8226 1 17.1117 1.94821 18.7996 3.63604C20.4874 5.32387 21.4356 7.61305 21.4356 10Z" stroke="#923800" stroke-width="2" stroke-linecap="round" stroke-linejoin="round"/>
<path id="Vector_2" d="M12.4356 13C14.0925 13 15.4356 11.6569 15.4356 10C15.4356 8.34315 14.0925 7 12.4356 7C10.7788 7 9.43561 8.34315 9.43561 10C9.43561 11.6569 10.7788 13 12.4356 13Z" stroke="#923800" stroke-width="2" stroke-linecap="round" stroke-linejoin="round"/>
</g>
</svg>
