<svg width="25" height="24" viewBox="0 0 25 24" fill="none" xmlns="http://www.w3.org/2000/svg">
<g id="phone">
<path id="Vector" d="M22.5039 16.9201V19.9201C22.505 20.1986 22.448 20.4743 22.3364 20.7294C22.2248 20.9846 22.0612 21.2137 21.856 21.402C21.6508 21.5902 21.4085 21.7336 21.1447 21.8228C20.8808 21.912 20.6013 21.9452 20.3239 21.9201C17.2467 21.5857 14.2909 20.5342 11.6939 18.8501C9.27774 17.3148 7.22924 15.2663 5.69391 12.8501C4.00389 10.2413 2.95215 7.27109 2.62391 4.1801C2.59892 3.90356 2.63178 3.62486 2.72041 3.36172C2.80903 3.09859 2.95148 2.85679 3.13867 2.65172C3.32587 2.44665 3.55371 2.28281 3.8077 2.17062C4.06169 2.05843 4.33625 2.00036 4.61391 2.0001H7.61391C8.09921 1.99532 8.5697 2.16718 8.93767 2.48363C9.30564 2.80008 9.54599 3.23954 9.61391 3.7201C9.74053 4.68016 9.97536 5.62282 10.3139 6.5301C10.4485 6.88802 10.4776 7.27701 10.3978 7.65098C10.3181 8.02494 10.1328 8.36821 9.86391 8.6401L8.59391 9.9101C10.0175 12.4136 12.0904 14.4865 14.5939 15.9101L15.8639 14.6401C16.1358 14.3712 16.4791 14.1859 16.853 14.1062C17.227 14.0264 17.616 14.0556 17.9739 14.1901C18.8812 14.5286 19.8238 14.7635 20.7839 14.8901C21.2697 14.9586 21.7133 15.2033 22.0304 15.5776C22.3476 15.9519 22.5161 16.4297 22.5039 16.9201Z" stroke="#923800" stroke-width="2" stroke-linecap="round" stroke-linejoin="round"/>
</g>
</svg>
