<svg width="80" height="48" viewBox="0 0 80 48" fill="none" xmlns="http://www.w3.org/2000/svg">
<g id="Frame 17">
<path id="Union" fill-rule="evenodd" clip-rule="evenodd" d="M7 0C5.89543 0 5 0.895431 5 2V46C5 47.1046 5.89543 48 7 48H53C53.1528 48 53.3016 47.9829 53.4446 47.9504C53.9588 47.9833 54.4775 48 55 48C68.2548 48 79 37.2548 79 24C79 10.7452 68.2548 0 55 0C54.4775 0 53.9588 0.0166995 53.4446 0.0495937C53.3016 0.0171369 53.1528 0 53 0H7Z" fill="#FFEBBA"/>
<path id="Search" d="M46.5493 28.1006C48.2438 25.7881 49.0027 22.9209 48.6743 20.0728C48.3458 17.2247 46.9543 14.6056 44.778 12.7395C42.6017 10.8735 39.8011 9.89805 36.9366 10.0084C34.0721 10.1188 31.3549 11.3069 29.3287 13.3349C27.3024 15.3629 26.1165 18.0813 26.0081 20.9463C25.8998 23.8113 26.8771 26.6115 28.7444 28.7868C30.6118 30.962 33.2315 32.3519 36.0795 32.6784C38.9275 33.0048 41.7936 32.2437 44.1046 30.5474H44.1029C44.1554 30.6174 44.2114 30.6839 44.2744 30.7486L51.0116 37.4868C51.3398 37.8152 51.7849 37.9998 52.2491 38C52.7133 38.0002 53.1586 37.8159 53.4869 37.4877C53.8153 37.1595 53.9998 36.7144 54 36.2501C54.0002 35.7858 53.8159 35.3405 53.4878 35.0121L46.7505 28.2739C46.688 28.2106 46.6207 28.1538 46.5493 28.1006ZM47.0008 21.3729C47.0008 22.637 46.7518 23.8888 46.2682 25.0566C45.7845 26.2245 45.0755 27.2857 44.1818 28.1795C43.2881 29.0734 42.227 29.7824 41.0593 30.2662C39.8916 30.7499 38.6401 30.9989 37.3761 30.9989C36.1122 30.9989 34.8607 30.7499 33.693 30.2662C32.5252 29.7824 31.4642 29.0734 30.5705 28.1795C29.6768 27.2857 28.9678 26.2245 28.4841 25.0566C28.0005 23.8888 27.7515 22.637 27.7515 21.3729C27.7515 18.82 28.7655 16.3716 30.5705 14.5663C32.3755 12.7611 34.8235 11.7469 37.3761 11.7469C39.9288 11.7469 42.3768 12.7611 44.1818 14.5663C45.9868 16.3716 47.0008 18.82 47.0008 21.3729Z" fill="#B2541A" stroke="#B2541A" stroke-width="2"/>
</g>
</svg>
