<svg width="31" height="32" viewBox="0 0 31 32" fill="none" xmlns="http://www.w3.org/2000/svg">
<g id="skill-icons:instagram" clip-path="url(#clip0_198_660)">
<g id="Group">
<path id="Vector" d="M23.1463 0H7.58237C3.79013 0 0.715912 3.29556 0.715912 7.36084V24.0454C0.715912 28.1107 3.79013 31.4063 7.58237 31.4063H23.1463C26.9386 31.4063 30.0128 28.1107 30.0128 24.0454V7.36084C30.0128 3.29556 26.9386 0 23.1463 0Z" fill="url(#paint0_radial_198_660)"/>
<path id="Vector_2" d="M23.1463 0H7.58237C3.79013 0 0.715912 3.29556 0.715912 7.36084V24.0454C0.715912 28.1107 3.79013 31.4063 7.58237 31.4063H23.1463C26.9386 31.4063 30.0128 28.1107 30.0128 24.0454V7.36084C30.0128 3.29556 26.9386 0 23.1463 0Z" fill="url(#paint1_radial_198_660)"/>
<path id="Vector_3" d="M15.3654 3.43506C12.2574 3.43506 11.8673 3.44966 10.6466 3.50916C9.4283 3.56903 8.59666 3.77574 7.86904 4.07913C7.11625 4.39246 6.47778 4.81166 5.84172 5.49376C5.20509 6.17574 4.81404 6.86018 4.52084 7.66681C4.23703 8.44705 4.04397 9.33894 3.98915 10.6444C3.93456 11.953 3.92026 12.3714 3.92026 15.7032C3.92026 19.0351 3.93399 19.452 3.98938 20.7605C4.04546 22.0666 4.23829 22.9581 4.52107 23.7381C4.81358 24.5451 5.20463 25.2295 5.84092 25.9114C6.47687 26.5939 7.11533 27.014 7.86755 27.3274C8.59574 27.6308 9.4275 27.8375 10.6456 27.8973C11.8663 27.9568 12.2561 27.9714 15.364 27.9714C18.4723 27.9714 18.8612 27.9568 20.0818 27.8973C21.3002 27.8375 22.1327 27.6308 22.8609 27.3274C23.6134 27.014 24.2509 26.5939 24.8867 25.9114C25.5234 25.2295 25.9143 24.5451 26.2076 23.7385C26.4889 22.9581 26.6821 22.0663 26.7393 20.7608C26.7941 19.4522 26.8084 19.0351 26.8084 15.7032C26.8084 12.3714 26.7941 11.9533 26.7393 10.6446C26.6821 9.33857 26.4889 8.44718 26.2076 7.66717C25.9143 6.86018 25.5234 6.17574 24.8867 5.49376C24.2502 4.81141 23.6136 4.39221 22.8602 4.07925C22.1307 3.77574 21.2986 3.5689 20.0802 3.50916C18.8595 3.44966 18.4708 3.43506 15.3618 3.43506H15.3654ZM14.3387 5.64589C14.6435 5.6454 14.9835 5.64589 15.3654 5.64589C18.4211 5.64589 18.7832 5.65766 19.9898 5.71643C21.1056 5.77114 21.7112 5.97099 22.1146 6.13894C22.6487 6.36124 23.0295 6.62709 23.4298 7.05659C23.8303 7.48597 24.0782 7.89487 24.2862 8.46742C24.4428 8.89926 24.6295 9.54848 24.6803 10.7446C24.7351 12.0379 24.747 12.4263 24.747 15.7004C24.747 18.9745 24.7351 19.3631 24.6803 20.6562C24.6293 21.8524 24.4428 22.5016 24.2862 22.9336C24.0788 23.5061 23.8303 23.9138 23.4298 24.3429C23.0293 24.7723 22.649 25.038 22.1146 25.2604C21.7117 25.4291 21.1056 25.6285 19.9898 25.6832C18.7834 25.742 18.4211 25.7547 15.3654 25.7547C12.3096 25.7547 11.9474 25.742 10.7411 25.6832C9.62525 25.628 9.01963 25.4281 8.61588 25.2602C8.0819 25.0378 7.70036 24.772 7.29981 24.3427C6.89927 23.9133 6.65139 23.5054 6.44345 22.9326C6.28678 22.5006 6.10013 21.8514 6.04932 20.6553C5.9945 19.362 5.98351 18.9735 5.98351 15.6974C5.98351 12.4213 5.9945 12.0349 6.04932 10.7416C6.10036 9.54541 6.28678 8.89619 6.44345 8.46374C6.65093 7.89119 6.89927 7.48229 7.29993 7.05291C7.70047 6.62353 8.0819 6.35768 8.616 6.13489C9.0194 5.96621 9.62525 5.76685 10.7411 5.71189C11.7968 5.66073 12.2059 5.6454 14.3387 5.64282V5.64589ZM21.4742 7.68288C20.7161 7.68288 20.1009 8.34167 20.1009 9.15455C20.1009 9.96731 20.7161 10.6267 21.4742 10.6267C22.2324 10.6267 22.8475 9.96731 22.8475 9.15455C22.8475 8.34179 22.2324 7.68239 21.4742 7.68239V7.68288ZM15.3654 9.40298C12.1198 9.40298 9.48838 12.2239 9.48838 15.7032C9.48838 19.1826 12.1198 22.0022 15.3654 22.0022C18.611 22.0022 21.2416 19.1826 21.2416 15.7032C21.2416 12.224 18.6108 9.40298 15.3652 9.40298H15.3654ZM15.3654 11.6138C17.4721 11.6138 19.1802 13.4446 19.1802 15.7032C19.1802 17.9617 17.4721 19.7927 15.3654 19.7927C13.2585 19.7927 11.5507 17.9617 11.5507 15.7032C11.5507 13.4446 13.2585 11.6138 15.3654 11.6138Z" fill="white"/>
</g>
</g>
<defs>
<radialGradient id="paint0_radial_198_660" cx="0" cy="0" r="1" gradientUnits="userSpaceOnUse" gradientTransform="translate(8.49789 33.8251) rotate(-90) scale(31.1259 27.0052)">
<stop stop-color="#FFDD55"/>
<stop offset="0.1" stop-color="#FFDD55"/>
<stop offset="0.5" stop-color="#FF543E"/>
<stop offset="1" stop-color="#C837AB"/>
</radialGradient>
<radialGradient id="paint1_radial_198_660" cx="0" cy="0" r="1" gradientUnits="userSpaceOnUse" gradientTransform="translate(-4.19143 2.26235) rotate(79.4235) scale(13.8786 53.634)">
<stop stop-color="#3771C8"/>
<stop offset="0.128" stop-color="#3771C8"/>
<stop offset="1" stop-color="#6600FF" stop-opacity="0"/>
</radialGradient>
<clipPath id="clip0_198_660">
<rect width="29.2969" height="31.4063" fill="white" transform="translate(0.715912)"/>
</clipPath>
</defs>
</svg>
